<?xml version="1.0" encoding="UTF-8"?>
<svg version="1.1" xmlns="http://www.w3.org/2000/svg" width="500" height="500">
<path d="M0 0 C1.79244141 0.01740234 1.79244141 0.01740234 3.62109375 0.03515625 C5.41740234 0.04869141 5.41740234 0.04869141 7.25 0.0625 C8.17683594 0.07410156 9.10367188 0.08570312 10.05859375 0.09765625 C11.38088564 2.74224004 11.15536569 4.77526926 11.12109375 7.72265625 C11.11207031 8.72554687 11.10304688 9.7284375 11.09375 10.76171875 C11.08214844 11.53257813 11.07054687 12.3034375 11.05859375 13.09765625 C12.23228516 13.08025391 12.23228516 13.08025391 13.4296875 13.0625 C14.94755859 13.04896484 14.94755859 13.04896484 16.49609375 13.03515625 C17.50542969 13.02355469 18.51476562 13.01195313 19.5546875 13 C22.05859375 13.09765625 22.05859375 13.09765625 23.05859375 14.09765625 C23.13085877 15.95053127 23.14240595 17.80599503 23.12109375 19.66015625 C23.11207031 20.67207031 23.10304688 21.68398437 23.09375 22.7265625 C23.08214844 23.50902344 23.07054687 24.29148437 23.05859375 25.09765625 C24.13378769 25.09543564 25.20898163 25.09321503 26.3167572 25.09092712 C36.42643576 25.07069635 46.53611023 25.05568442 56.64580441 25.04584408 C61.8438749 25.04061509 67.04192911 25.03351715 72.23999023 25.0222168 C77.25201643 25.01138849 82.26402693 25.00537954 87.27606392 25.00277901 C89.19271657 25.00092466 91.10936832 24.99730385 93.02601433 24.99192619 C95.70087447 24.9847165 98.37566889 24.98366528 101.05053711 24.98413086 C101.85110535 24.98053558 102.65167358 24.97694031 103.47650146 24.97323608 C108.94454159 24.98360409 108.94454159 24.98360409 110.05859375 26.09765625 C110.18568694 27.45145147 110.24677669 28.81155131 110.27978516 30.17089844 C110.30295807 31.03559753 110.32613098 31.90029663 110.3500061 32.79119873 C110.36985565 33.73279846 110.3897052 34.67439819 110.41015625 35.64453125 C110.44488541 37.08956024 110.44488541 37.08956024 110.48031616 38.56378174 C110.52804634 40.60822104 110.57326907 42.65272015 110.61621094 44.69726562 C110.68301389 47.82054572 110.76088058 50.94341277 110.83984375 54.06640625 C110.88478709 56.05076613 110.92907892 58.0351409 110.97265625 60.01953125 C111.00850327 61.41978546 111.00850327 61.41978546 111.04507446 62.84832764 C111.06194305 63.72563538 111.07881165 64.60294312 111.09619141 65.50683594 C111.12164536 66.65813995 111.12164536 66.65813995 111.14761353 67.83270264 C111.05859375 70.09765625 111.05859375 70.09765625 110.05859375 75.09765625 C113.68859375 75.09765625 117.31859375 75.09765625 121.05859375 75.09765625 C121.05637314 74.17279922 121.05415253 73.2479422 121.05186462 72.2950592 C121.03186462 63.59813038 121.01662111 54.90120923 121.00678158 46.20426273 C121.00155301 41.73260076 120.99445586 37.26095772 120.9831543 32.78930664 C120.97232446 28.47753652 120.96631671 24.16578466 120.96371651 19.854002 C120.96186243 18.20529327 120.95824215 16.55658559 120.95286369 14.9078846 C120.94565197 12.60661753 120.94460286 10.30542685 120.94506836 8.00415039 C120.94284775 6.69176895 120.94062714 5.37938751 120.93833923 4.02723694 C121.05859375 1.09765625 121.05859375 1.09765625 122.05859375 0.09765625 C124.24498828 0.02506679 126.43359764 0.01391842 128.62109375 0.03515625 C130.41740234 0.04869141 130.41740234 0.04869141 132.25 0.0625 C133.17683594 0.07410156 134.10367188 0.08570312 135.05859375 0.09765625 C136.32097106 2.62241087 136.15715779 4.40966091 136.12109375 7.22265625 C136.11207031 8.13273437 136.10304688 9.0428125 136.09375 9.98046875 C136.07634766 11.02847656 136.07634766 11.02847656 136.05859375 12.09765625 C136.84105469 12.15824219 137.62351562 12.21882813 138.4296875 12.28125 C139.44160156 12.36503906 140.45351563 12.44882813 141.49609375 12.53515625 C143.01009766 12.65697266 143.01009766 12.65697266 144.5546875 12.78125 C147.05859375 13.09765625 147.05859375 13.09765625 148.05859375 14.09765625 C148.13085877 15.95053127 148.14240595 17.80599503 148.12109375 19.66015625 C148.11207031 20.67207031 148.10304688 21.68398437 148.09375 22.7265625 C148.07634766 23.90025391 148.07634766 23.90025391 148.05859375 25.09765625 C149.68655884 25.08980103 149.68655884 25.08980103 151.34741211 25.08178711 C155.35977357 25.06373789 159.37213142 25.05222454 163.38452148 25.04272461 C165.12378543 25.03768421 166.86304511 25.03085195 168.60229492 25.0222168 C171.09685312 25.01013833 173.59135548 25.00442517 176.0859375 25 C176.86823227 24.99483871 177.65052704 24.98967743 178.45652771 24.98435974 C180.32426489 24.98416399 182.19188579 25.03565931 184.05859375 25.09765625 C185.05859375 26.09765625 185.05859375 26.09765625 185.15625 28.8203125 C185.14464844 29.92246094 185.13304687 31.02460938 185.12109375 32.16015625 C185.11207031 33.26488281 185.10304688 34.36960938 185.09375 35.5078125 C185.07634766 36.78978516 185.07634766 36.78978516 185.05859375 38.09765625 C185.82945312 38.00226563 186.6003125 37.906875 187.39453125 37.80859375 C188.39742187 37.69773438 189.4003125 37.586875 190.43359375 37.47265625 C191.43132812 37.35664063 192.4290625 37.240625 193.45703125 37.12109375 C194.74480469 37.10949219 194.74480469 37.10949219 196.05859375 37.09765625 C198.05859375 39.09765625 198.05859375 39.09765625 198.28564453 41.52783203 C198.2751709 42.52282715 198.26469727 43.51782227 198.25390625 44.54296875 C198.24746094 45.61933594 198.24101562 46.69570312 198.234375 47.8046875 C198.21761719 48.93261719 198.20085937 50.06054688 198.18359375 51.22265625 C198.17457031 52.35832031 198.16554688 53.49398437 198.15625 54.6640625 C198.13262574 57.47534962 198.09675385 60.28652887 198.05859375 63.09765625 C202.01859375 63.09765625 205.97859375 63.09765625 210.05859375 63.09765625 C210.05859375 67.05765625 210.05859375 71.01765625 210.05859375 75.09765625 C214.01859375 75.09765625 217.97859375 75.09765625 222.05859375 75.09765625 C223.2052825 77.39103374 223.18388417 78.66200616 223.18443489 81.21127319 C223.18834651 82.5112194 223.18834651 82.5112194 223.19233716 83.83742714 C223.18899107 85.27407502 223.18899107 85.27407502 223.18557739 86.73974609 C223.18713738 87.7527648 223.18869737 88.7657835 223.19030464 89.80949974 C223.19431383 93.22587893 223.19112529 96.64221418 223.18798828 100.05859375 C223.18934236 102.49896267 223.19112232 104.93933138 223.19329834 107.37969971 C223.19739628 113.33313735 223.19678065 119.28655755 223.1938857 125.23999453 C223.19163071 130.07688787 223.19131956 134.91377767 223.19240952 139.75067139 C223.19256275 140.43811255 223.19271598 141.12555371 223.19287386 141.83382642 C223.19319357 143.23018789 223.19351778 144.62654936 223.19384645 146.02291083 C223.19670053 159.12800273 223.19341535 172.23308764 223.18804608 185.3381784 C223.18357811 196.59199222 223.18435406 207.84579573 223.18896484 219.09960938 C223.19431188 232.15662366 223.19642584 245.21363182 223.19335258 258.27064705 C223.19303402 259.6619784 223.19271965 261.05330976 223.19240952 262.44464111 C223.19225524 263.12926906 223.19210096 263.81389701 223.19194201 264.51927125 C223.19107725 269.35242826 223.19253887 274.18558139 223.19488907 279.01873779 C223.19798048 285.51932088 223.19579122 292.01988743 223.18999481 298.52046967 C223.18866747 300.91266599 223.1890609 303.30486395 223.19125748 305.69705963 C223.19396996 308.94991779 223.1905866 312.20271235 223.18557739 315.45556641 C223.18780811 316.41333166 223.19003884 317.37109692 223.19233716 318.35788536 C223.18972941 319.22451616 223.18712166 320.09114697 223.18443489 320.98403931 C223.18427254 321.73556086 223.18411019 322.48708241 223.18394291 323.26137733 C223.05859375 325.09765625 223.05859375 325.09765625 222.05859375 327.09765625 C218.09859375 327.09765625 214.13859375 327.09765625 210.05859375 327.09765625 C210.05859375 331.05765625 210.05859375 335.01765625 210.05859375 339.09765625 C127.22859375 339.09765625 44.39859375 339.09765625 -40.94140625 339.09765625 C-41.8753241 334.42806698 -41.75058281 331.68299008 -40.94140625 327.09765625 C-44.90140625 327.09765625 -48.86140625 327.09765625 -52.94140625 327.09765625 C-54.76230104 323.45586668 -53.99261738 319.09212477 -53.94140625 315.09765625 C-57.90140625 314.76765625 -61.86140625 314.43765625 -65.94140625 314.09765625 C-65.94140625 226.97765625 -65.94140625 139.85765625 -65.94140625 50.09765625 C-61.98140625 50.09765625 -58.02140625 50.09765625 -53.94140625 50.09765625 C-53.95880859 47.51630859 -53.95880859 47.51630859 -53.9765625 44.8828125 C-53.98593859 42.64192816 -53.99503898 40.40104266 -54.00390625 38.16015625 C-54.01228516 37.02384766 -54.02066406 35.88753906 -54.02929688 34.71679688 C-54.03251953 33.63720703 -54.03574219 32.55761719 -54.0390625 31.4453125 C-54.04429932 30.44508057 -54.04953613 29.44484863 -54.05493164 28.41430664 C-53.94140625 26.09765625 -53.94140625 26.09765625 -52.94140625 25.09765625 C-50.21416346 24.99666137 -47.51278102 24.95795096 -44.78515625 24.96484375 C-43.96768921 24.96388702 -43.15022217 24.9629303 -42.3079834 24.96194458 C-40.57625247 24.9612628 -38.84451901 24.96311696 -37.11279297 24.96728516 C-34.45274143 24.97263346 -31.79285875 24.96734013 -29.1328125 24.9609375 C-27.45442671 24.96159828 -25.77604102 24.96287945 -24.09765625 24.96484375 C-23.29662476 24.96281952 -22.49559326 24.96079529 -21.67028809 24.95870972 C-16.05635704 24.98270546 -16.05635704 24.98270546 -14.94140625 26.09765625 C-14.76830177 29.20111765 -14.65711423 32.28428835 -14.58984375 35.390625 C-14.56669098 36.32940994 -14.54353821 37.26819489 -14.51968384 38.23542786 C-14.47194972 40.22859102 -14.42672749 42.22181565 -14.38378906 44.21508789 C-14.31706894 47.25496301 -14.23916403 50.29440682 -14.16015625 53.33398438 C-14.11520425 55.26951555 -14.07091243 57.20506219 -14.02734375 59.140625 C-14.00344574 60.04709274 -13.97954773 60.95356049 -13.95492554 61.88749695 C-13.86555991 66.42879129 -13.99101838 70.626242 -14.94140625 75.09765625 C-11.31140625 75.09765625 -7.68140625 75.09765625 -3.94140625 75.09765625 C-3.94362686 74.17279922 -3.94584747 73.2479422 -3.94813538 72.2950592 C-3.96813538 63.59813038 -3.98337889 54.90120923 -3.99321842 46.20426273 C-3.99844699 41.73260076 -4.00554414 37.26095772 -4.0168457 32.78930664 C-4.02767554 28.47753652 -4.03368329 24.16578466 -4.03628349 19.854002 C-4.03813757 18.20529327 -4.04175785 16.55658559 -4.04713631 14.9078846 C-4.05434803 12.60661753 -4.05539714 10.30542685 -4.05493164 8.00415039 C-4.05715225 6.69176895 -4.05937286 5.37938751 -4.06166077 4.02723694 C-3.90166655 0.1295374 -3.90166655 0.1295374 0 0 Z M-1.94140625 77.09765625 C-1.94140625 80.39765625 -1.94140625 83.69765625 -1.94140625 87.09765625 C3.20176677 88.23545613 3.20176677 88.23545613 8.12109375 87.16015625 C9.67668975 83.73784505 8.71609752 80.74381349 8.05859375 77.09765625 C4.75859375 77.09765625 1.45859375 77.09765625 -1.94140625 77.09765625 Z M123.05859375 77.09765625 C123.05859375 80.39765625 123.05859375 83.69765625 123.05859375 87.09765625 C126.35859375 87.09765625 129.65859375 87.09765625 133.05859375 87.09765625 C133.05859375 83.79765625 133.05859375 80.49765625 133.05859375 77.09765625 C129.75859375 77.09765625 126.45859375 77.09765625 123.05859375 77.09765625 Z " fill="#F4F9F3" transform="translate(177.94140625,98.90234375)"/>
<path d="M0 0 C1.79244141 0.01740234 1.79244141 0.01740234 3.62109375 0.03515625 C5.41740234 0.04869141 5.41740234 0.04869141 7.25 0.0625 C8.17683594 0.07410156 9.10367188 0.08570312 10.05859375 0.09765625 C11.38088564 2.74224004 11.15536569 4.77526926 11.12109375 7.72265625 C11.11207031 8.72554687 11.10304688 9.7284375 11.09375 10.76171875 C11.08214844 11.53257813 11.07054687 12.3034375 11.05859375 13.09765625 C12.23228516 13.08025391 12.23228516 13.08025391 13.4296875 13.0625 C14.94755859 13.04896484 14.94755859 13.04896484 16.49609375 13.03515625 C17.50542969 13.02355469 18.51476562 13.01195313 19.5546875 13 C22.05859375 13.09765625 22.05859375 13.09765625 23.05859375 14.09765625 C23.13085877 15.95053127 23.14240595 17.80599503 23.12109375 19.66015625 C23.11207031 20.67207031 23.10304688 21.68398437 23.09375 22.7265625 C23.08214844 23.50902344 23.07054687 24.29148437 23.05859375 25.09765625 C24.13378769 25.09543564 25.20898163 25.09321503 26.3167572 25.09092712 C36.42643576 25.07069635 46.53611023 25.05568442 56.64580441 25.04584408 C61.8438749 25.04061509 67.04192911 25.03351715 72.23999023 25.0222168 C77.25201643 25.01138849 82.26402693 25.00537954 87.27606392 25.00277901 C89.19271657 25.00092466 91.10936832 24.99730385 93.02601433 24.99192619 C95.70087447 24.9847165 98.37566889 24.98366528 101.05053711 24.98413086 C101.85110535 24.98053558 102.65167358 24.97694031 103.47650146 24.97323608 C108.94454159 24.98360409 108.94454159 24.98360409 110.05859375 26.09765625 C110.18568694 27.45145147 110.24677669 28.81155131 110.27978516 30.17089844 C110.30295807 31.03559753 110.32613098 31.90029663 110.3500061 32.79119873 C110.36985565 33.73279846 110.3897052 34.67439819 110.41015625 35.64453125 C110.44488541 37.08956024 110.44488541 37.08956024 110.48031616 38.56378174 C110.52804634 40.60822104 110.57326907 42.65272015 110.61621094 44.69726562 C110.68301389 47.82054572 110.76088058 50.94341277 110.83984375 54.06640625 C110.88478709 56.05076613 110.92907892 58.0351409 110.97265625 60.01953125 C111.00850327 61.41978546 111.00850327 61.41978546 111.04507446 62.84832764 C111.06194305 63.72563538 111.07881165 64.60294312 111.09619141 65.50683594 C111.12164536 66.65813995 111.12164536 66.65813995 111.14761353 67.83270264 C111.05859375 70.09765625 111.05859375 70.09765625 110.05859375 75.09765625 C113.68859375 75.09765625 117.31859375 75.09765625 121.05859375 75.09765625 C121.05637314 74.17279922 121.05415253 73.2479422 121.05186462 72.2950592 C121.03186462 63.59813038 121.01662111 54.90120923 121.00678158 46.20426273 C121.00155301 41.73260076 120.99445586 37.26095772 120.9831543 32.78930664 C120.97232446 28.47753652 120.96631671 24.16578466 120.96371651 19.854002 C120.96186243 18.20529327 120.95824215 16.55658559 120.95286369 14.9078846 C120.94565197 12.60661753 120.94460286 10.30542685 120.94506836 8.00415039 C120.94284775 6.69176895 120.94062714 5.37938751 120.93833923 4.02723694 C121.05859375 1.09765625 121.05859375 1.09765625 122.05859375 0.09765625 C124.24498828 0.02506679 126.43359764 0.01391842 128.62109375 0.03515625 C130.41740234 0.04869141 130.41740234 0.04869141 132.25 0.0625 C133.17683594 0.07410156 134.10367188 0.08570312 135.05859375 0.09765625 C136.32097106 2.62241087 136.15715779 4.40966091 136.12109375 7.22265625 C136.11207031 8.13273437 136.10304688 9.0428125 136.09375 9.98046875 C136.07634766 11.02847656 136.07634766 11.02847656 136.05859375 12.09765625 C136.84105469 12.15824219 137.62351562 12.21882813 138.4296875 12.28125 C139.44160156 12.36503906 140.45351563 12.44882813 141.49609375 12.53515625 C143.01009766 12.65697266 143.01009766 12.65697266 144.5546875 12.78125 C147.05859375 13.09765625 147.05859375 13.09765625 148.05859375 14.09765625 C148.13085877 15.95053127 148.14240595 17.80599503 148.12109375 19.66015625 C148.11207031 20.67207031 148.10304688 21.68398437 148.09375 22.7265625 C148.07634766 23.90025391 148.07634766 23.90025391 148.05859375 25.09765625 C149.68655884 25.08980103 149.68655884 25.08980103 151.34741211 25.08178711 C155.35977357 25.06373789 159.37213142 25.05222454 163.38452148 25.04272461 C165.12378543 25.03768421 166.86304511 25.03085195 168.60229492 25.0222168 C171.09685312 25.01013833 173.59135548 25.00442517 176.0859375 25 C176.86823227 24.99483871 177.65052704 24.98967743 178.45652771 24.98435974 C180.32426489 24.98416399 182.19188579 25.03565931 184.05859375 25.09765625 C185.05859375 26.09765625 185.05859375 26.09765625 185.15625 28.8203125 C185.14464844 29.92246094 185.13304687 31.02460938 185.12109375 32.16015625 C185.11207031 33.26488281 185.10304688 34.36960938 185.09375 35.5078125 C185.07634766 36.78978516 185.07634766 36.78978516 185.05859375 38.09765625 C185.82945312 38.00226563 186.6003125 37.906875 187.39453125 37.80859375 C188.39742187 37.69773438 189.4003125 37.586875 190.43359375 37.47265625 C191.43132812 37.35664063 192.4290625 37.240625 193.45703125 37.12109375 C194.74480469 37.10949219 194.74480469 37.10949219 196.05859375 37.09765625 C198.05859375 39.09765625 198.05859375 39.09765625 198.28564453 41.52783203 C198.2751709 42.52282715 198.26469727 43.51782227 198.25390625 44.54296875 C198.24746094 45.61933594 198.24101562 46.69570312 198.234375 47.8046875 C198.21761719 48.93261719 198.20085937 50.06054688 198.18359375 51.22265625 C198.17457031 52.35832031 198.16554688 53.49398437 198.15625 54.6640625 C198.13262574 57.47534962 198.09675385 60.28652887 198.05859375 63.09765625 C202.01859375 63.09765625 205.97859375 63.09765625 210.05859375 63.09765625 C210.05859375 67.05765625 210.05859375 71.01765625 210.05859375 75.09765625 C214.01859375 75.09765625 217.97859375 75.09765625 222.05859375 75.09765625 C223.2052825 77.39103374 223.18388417 78.66200616 223.18443489 81.21127319 C223.18834651 82.5112194 223.18834651 82.5112194 223.19233716 83.83742714 C223.18899107 85.27407502 223.18899107 85.27407502 223.18557739 86.73974609 C223.18713738 87.7527648 223.18869737 88.7657835 223.19030464 89.80949974 C223.19431383 93.22587893 223.19112529 96.64221418 223.18798828 100.05859375 C223.18934236 102.49896267 223.19112232 104.93933138 223.19329834 107.37969971 C223.19739628 113.33313735 223.19678065 119.28655755 223.1938857 125.23999453 C223.19163071 130.07688787 223.19131956 134.91377767 223.19240952 139.75067139 C223.19256275 140.43811255 223.19271598 141.12555371 223.19287386 141.83382642 C223.19319357 143.23018789 223.19351778 144.62654936 223.19384645 146.02291083 C223.19670053 159.12800273 223.19341535 172.23308764 223.18804608 185.3381784 C223.18357811 196.59199222 223.18435406 207.84579573 223.18896484 219.09960938 C223.19431188 232.15662366 223.19642584 245.21363182 223.19335258 258.27064705 C223.19303402 259.6619784 223.19271965 261.05330976 223.19240952 262.44464111 C223.19225524 263.12926906 223.19210096 263.81389701 223.19194201 264.51927125 C223.19107725 269.35242826 223.19253887 274.18558139 223.19488907 279.01873779 C223.19798048 285.51932088 223.19579122 292.01988743 223.18999481 298.52046967 C223.18866747 300.91266599 223.1890609 303.30486395 223.19125748 305.69705963 C223.19396996 308.94991779 223.1905866 312.20271235 223.18557739 315.45556641 C223.18780811 316.41333166 223.19003884 317.37109692 223.19233716 318.35788536 C223.18972941 319.22451616 223.18712166 320.09114697 223.18443489 320.98403931 C223.18427254 321.73556086 223.18411019 322.48708241 223.18394291 323.26137733 C223.05859375 325.09765625 223.05859375 325.09765625 222.05859375 327.09765625 C218.09859375 327.09765625 214.13859375 327.09765625 210.05859375 327.09765625 C210.05859375 331.05765625 210.05859375 335.01765625 210.05859375 339.09765625 C127.22859375 339.09765625 44.39859375 339.09765625 -40.94140625 339.09765625 C-41.8753241 334.42806698 -41.75058281 331.68299008 -40.94140625 327.09765625 C-44.90140625 327.09765625 -48.86140625 327.09765625 -52.94140625 327.09765625 C-54.76230104 323.45586668 -53.99261738 319.09212477 -53.94140625 315.09765625 C-57.90140625 314.76765625 -61.86140625 314.43765625 -65.94140625 314.09765625 C-65.94140625 226.97765625 -65.94140625 139.85765625 -65.94140625 50.09765625 C-61.98140625 50.09765625 -58.02140625 50.09765625 -53.94140625 50.09765625 C-53.95880859 47.51630859 -53.95880859 47.51630859 -53.9765625 44.8828125 C-53.98593859 42.64192816 -53.99503898 40.40104266 -54.00390625 38.16015625 C-54.01228516 37.02384766 -54.02066406 35.88753906 -54.02929688 34.71679688 C-54.03251953 33.63720703 -54.03574219 32.55761719 -54.0390625 31.4453125 C-54.04429932 30.44508057 -54.04953613 29.44484863 -54.05493164 28.41430664 C-53.94140625 26.09765625 -53.94140625 26.09765625 -52.94140625 25.09765625 C-50.21416346 24.99666137 -47.51278102 24.95795096 -44.78515625 24.96484375 C-43.96768921 24.96388702 -43.15022217 24.9629303 -42.3079834 24.96194458 C-40.57625247 24.9612628 -38.84451901 24.96311696 -37.11279297 24.96728516 C-34.45274143 24.97263346 -31.79285875 24.96734013 -29.1328125 24.9609375 C-27.45442671 24.96159828 -25.77604102 24.96287945 -24.09765625 24.96484375 C-23.29662476 24.96281952 -22.49559326 24.96079529 -21.67028809 24.95870972 C-16.05635704 24.98270546 -16.05635704 24.98270546 -14.94140625 26.09765625 C-14.76830177 29.20111765 -14.65711423 32.28428835 -14.58984375 35.390625 C-14.56669098 36.32940994 -14.54353821 37.26819489 -14.51968384 38.23542786 C-14.47194972 40.22859102 -14.42672749 42.22181565 -14.38378906 44.21508789 C-14.31706894 47.25496301 -14.23916403 50.29440682 -14.16015625 53.33398438 C-14.11520425 55.26951555 -14.07091243 57.20506219 -14.02734375 59.140625 C-14.00344574 60.04709274 -13.97954773 60.95356049 -13.95492554 61.88749695 C-13.86555991 66.42879129 -13.99101838 70.626242 -14.94140625 75.09765625 C-11.31140625 75.09765625 -7.68140625 75.09765625 -3.94140625 75.09765625 C-3.94362686 74.17279922 -3.94584747 73.2479422 -3.94813538 72.2950592 C-3.96813538 63.59813038 -3.98337889 54.90120923 -3.99321842 46.20426273 C-3.99844699 41.73260076 -4.00554414 37.26095772 -4.0168457 32.78930664 C-4.02767554 28.47753652 -4.03368329 24.16578466 -4.03628349 19.854002 C-4.03813757 18.20529327 -4.04175785 16.55658559 -4.04713631 14.9078846 C-4.05434803 12.60661753 -4.05539714 10.30542685 -4.05493164 8.00415039 C-4.05715225 6.69176895 -4.05937286 5.37938751 -4.06166077 4.02723694 C-3.90166655 0.1295374 -3.90166655 0.1295374 0 0 Z M-1.94140625 77.09765625 C-1.94140625 80.39765625 -1.94140625 83.69765625 -1.94140625 87.09765625 C3.20176677 88.23545613 3.20176677 88.23545613 8.12109375 87.16015625 C9.67668975 83.73784505 8.71609752 80.74381349 8.05859375 77.09765625 C4.75859375 77.09765625 1.45859375 77.09765625 -1.94140625 77.09765625 Z M123.05859375 77.09765625 C123.05859375 80.39765625 123.05859375 83.69765625 123.05859375 87.09765625 C126.35859375 87.09765625 129.65859375 87.09765625 133.05859375 87.09765625 C133.05859375 83.79765625 133.05859375 80.49765625 133.05859375 77.09765625 C129.75859375 77.09765625 126.45859375 77.09765625 123.05859375 77.09765625 Z M-52.94140625 114.09765625 C-52.94140625 175.80765625 -52.94140625 237.51765625 -52.94140625 301.09765625 C25.59859375 301.09765625 104.13859375 301.09765625 185.05859375 301.09765625 C185.05859375 239.38765625 185.05859375 177.67765625 185.05859375 114.09765625 C106.51859375 114.09765625 27.97859375 114.09765625 -52.94140625 114.09765625 Z " fill="#1F3D60" transform="translate(177.94140625,98.90234375)"/>
<path d="M0 0 C0.33 0 0.66 0 1 0 C1 24.75 1 49.5 1 75 C-3.29 75 -7.58 75 -12 75 C-12 58.83 -12 42.66 -12 26 C-29.325 26.495 -29.325 26.495 -47 27 C-47.2890278 33.82084078 -47.2890278 33.82084078 -47.56811523 40.64208984 C-47.60622314 41.48980957 -47.64433105 42.3375293 -47.68359375 43.2109375 C-47.73858032 44.51490479 -47.73858032 44.51490479 -47.79467773 45.84521484 C-48 48 -48 48 -49 50 C-52.96 50 -56.92 50 -61 50 C-61 136.46 -61 222.92 -61 312 C-56.71 312 -52.42 312 -48 312 C-47.67 315.96 -47.34 319.92 -47 324 C69.82 324.495 69.82 324.495 189 325 C189 320.71 189 316.42 189 312 C192.96 312 196.92 312 201 312 C201 225.54 201 139.08 201 50 C197.04 50 193.08 50 189 50 C189 45.71 189 41.42 189 37 C197.3984375 36.0234375 197.3984375 36.0234375 200 36 C202 38 202 38 202.22705078 40.43017578 C202.21657715 41.4251709 202.20610352 42.42016602 202.1953125 43.4453125 C202.18886719 44.52167969 202.18242187 45.59804687 202.17578125 46.70703125 C202.15902344 47.83496094 202.14226562 48.96289062 202.125 50.125 C202.11597656 51.26066406 202.10695313 52.39632812 202.09765625 53.56640625 C202.07403199 56.37769337 202.0381601 59.18887262 202 62 C205.96 62 209.92 62 214 62 C214 65.96 214 69.92 214 74 C217.96 74 221.92 74 226 74 C227.14668875 76.29337749 227.12529042 77.56434991 227.12584114 80.11361694 C227.12975276 81.41356315 227.12975276 81.41356315 227.13374341 82.73977089 C227.13039732 84.17641877 227.13039732 84.17641877 227.12698364 85.64208984 C227.12854363 86.65510855 227.13010362 87.66812725 227.13171089 88.71184349 C227.13572008 92.12822268 227.13253154 95.54455793 227.12939453 98.9609375 C227.13074861 101.40130642 227.13252857 103.84167513 227.13470459 106.28204346 C227.13880253 112.2354811 227.1381869 118.1889013 227.13529195 124.14233828 C227.13303696 128.97923162 227.13272581 133.81612142 227.13381577 138.65301514 C227.133969 139.3404563 227.13412223 140.02789746 227.13428011 140.73617017 C227.13459982 142.13253164 227.13492403 143.52889311 227.1352527 144.92525458 C227.13810678 158.03034648 227.1348216 171.13543139 227.12945233 184.24052215 C227.12498436 195.49433597 227.12576031 206.74813948 227.13037109 218.00195312 C227.13571813 231.05896741 227.13783209 244.11597557 227.13475883 257.1729908 C227.13444027 258.56432215 227.1341259 259.95565351 227.13381577 261.34698486 C227.13366149 262.03161281 227.13350721 262.71624076 227.13334826 263.421615 C227.1324835 268.25477201 227.13394512 273.08792514 227.13629532 277.92108154 C227.13938673 284.42166463 227.13719747 290.92223118 227.13140106 297.42281342 C227.13007372 299.81500974 227.13046715 302.2072077 227.13266373 304.59940338 C227.13537621 307.85226154 227.13199285 311.1050561 227.12698364 314.35791016 C227.12921436 315.31567541 227.13144509 316.27344067 227.13374341 317.26022911 C227.13113566 318.12685991 227.12852791 318.99349072 227.12584114 319.88638306 C227.12567879 320.63790461 227.12551644 321.38942616 227.12534916 322.16372108 C227 324 227 324 226 326 C222.04 326 218.08 326 214 326 C214 329.96 214 333.92 214 338 C131.17 338 48.34 338 -37 338 C-37.93391785 333.33041073 -37.80917656 330.58533383 -37 326 C-40.96 326 -44.92 326 -49 326 C-50.82089479 322.35821043 -50.05121113 317.99446852 -50 314 C-53.96 313.67 -57.92 313.34 -62 313 C-62 225.88 -62 138.76 -62 49 C-58.04 49 -54.08 49 -50 49 C-50.01740234 46.41865234 -50.01740234 46.41865234 -50.03515625 43.78515625 C-50.04453234 41.54427191 -50.05363273 39.30338641 -50.0625 37.0625 C-50.07087891 35.92619141 -50.07925781 34.78988281 -50.08789062 33.61914062 C-50.09111328 32.53955078 -50.09433594 31.45996094 -50.09765625 30.34765625 C-50.10289307 29.34742432 -50.10812988 28.34719238 -50.11352539 27.31665039 C-50 25 -50 25 -49 24 C-46.27275721 23.89900512 -43.57137477 23.86029471 -40.84375 23.8671875 C-40.02628296 23.86623077 -39.20881592 23.86527405 -38.36657715 23.86428833 C-36.63484622 23.86360655 -34.90311276 23.86546071 -33.17138672 23.86962891 C-30.51133518 23.87497721 -27.8514525 23.86968388 -25.19140625 23.86328125 C-23.51302046 23.86394203 -21.83463477 23.8652232 -20.15625 23.8671875 C-19.35521851 23.86516327 -18.55418701 23.86313904 -17.72888184 23.86105347 C-12.11495079 23.88504921 -12.11495079 23.88504921 -11 25 C-10.82689552 28.1034614 -10.71570798 31.1866321 -10.6484375 34.29296875 C-10.62528473 35.23175369 -10.60213196 36.17053864 -10.57827759 37.13777161 C-10.53054347 39.13093477 -10.48532124 41.1241594 -10.44238281 43.11743164 C-10.37566269 46.15730676 -10.29775778 49.19675057 -10.21875 52.23632812 C-10.173798 54.1718593 -10.12950618 56.10740594 -10.0859375 58.04296875 C-10.06203949 58.94943649 -10.03814148 59.85590424 -10.01351929 60.7898407 C-9.92415366 65.33113504 -10.04961213 69.52858575 -11 74 C-7.37 74 -3.74 74 0 74 C0 49.58 0 25.16 0 0 Z " fill="#A9A398" transform="translate(174,100)"/>
<path d="M0 0 C0.33 0 0.66 0 1 0 C1 24.75 1 49.5 1 75 C-3.29 75 -7.58 75 -12 75 C-12 58.83 -12 42.66 -12 26 C-29.325 26.495 -29.325 26.495 -47 27 C-47.2890278 33.82084078 -47.2890278 33.82084078 -47.56811523 40.64208984 C-47.60622314 41.48980957 -47.64433105 42.3375293 -47.68359375 43.2109375 C-47.73858032 44.51490479 -47.73858032 44.51490479 -47.79467773 45.84521484 C-48 48 -48 48 -49 50 C-52.96 50 -56.92 50 -61 50 C-61 136.46 -61 222.92 -61 312 C-56.71 312 -52.42 312 -48 312 C-47.67 315.96 -47.34 319.92 -47 324 C-39.41 324.33 -31.82 324.66 -24 325 C-24 328.96 -24 332.92 -24 337 C50.25 337 124.5 337 201 337 C201 333.04 201 329.08 201 325 C204.96 325 208.92 325 213 325 C213 242.5 213 160 213 75 C209.04 75 205.08 75 201 75 C201 66.75 201 58.5 201 50 C197.04 50 193.08 50 189 50 C189 45.71 189 41.42 189 37 C197.3984375 36.0234375 197.3984375 36.0234375 200 36 C202 38 202 38 202.22705078 40.43017578 C202.21657715 41.4251709 202.20610352 42.42016602 202.1953125 43.4453125 C202.18886719 44.52167969 202.18242187 45.59804687 202.17578125 46.70703125 C202.15902344 47.83496094 202.14226562 48.96289062 202.125 50.125 C202.11597656 51.26066406 202.10695313 52.39632812 202.09765625 53.56640625 C202.07403199 56.37769337 202.0381601 59.18887262 202 62 C205.96 62 209.92 62 214 62 C214 65.96 214 69.92 214 74 C217.96 74 221.92 74 226 74 C227.14668875 76.29337749 227.12529042 77.56434991 227.12584114 80.11361694 C227.12975276 81.41356315 227.12975276 81.41356315 227.13374341 82.73977089 C227.13039732 84.17641877 227.13039732 84.17641877 227.12698364 85.64208984 C227.12854363 86.65510855 227.13010362 87.66812725 227.13171089 88.71184349 C227.13572008 92.12822268 227.13253154 95.54455793 227.12939453 98.9609375 C227.13074861 101.40130642 227.13252857 103.84167513 227.13470459 106.28204346 C227.13880253 112.2354811 227.1381869 118.1889013 227.13529195 124.14233828 C227.13303696 128.97923162 227.13272581 133.81612142 227.13381577 138.65301514 C227.133969 139.3404563 227.13412223 140.02789746 227.13428011 140.73617017 C227.13459982 142.13253164 227.13492403 143.52889311 227.1352527 144.92525458 C227.13810678 158.03034648 227.1348216 171.13543139 227.12945233 184.24052215 C227.12498436 195.49433597 227.12576031 206.74813948 227.13037109 218.00195312 C227.13571813 231.05896741 227.13783209 244.11597557 227.13475883 257.1729908 C227.13444027 258.56432215 227.1341259 259.95565351 227.13381577 261.34698486 C227.13366149 262.03161281 227.13350721 262.71624076 227.13334826 263.421615 C227.1324835 268.25477201 227.13394512 273.08792514 227.13629532 277.92108154 C227.13938673 284.42166463 227.13719747 290.92223118 227.13140106 297.42281342 C227.13007372 299.81500974 227.13046715 302.2072077 227.13266373 304.59940338 C227.13537621 307.85226154 227.13199285 311.1050561 227.12698364 314.35791016 C227.12921436 315.31567541 227.13144509 316.27344067 227.13374341 317.26022911 C227.13113566 318.12685991 227.12852791 318.99349072 227.12584114 319.88638306 C227.12567879 320.63790461 227.12551644 321.38942616 227.12534916 322.16372108 C227 324 227 324 226 326 C222.04 326 218.08 326 214 326 C214 329.96 214 333.92 214 338 C131.17 338 48.34 338 -37 338 C-37.93391785 333.33041073 -37.80917656 330.58533383 -37 326 C-40.96 326 -44.92 326 -49 326 C-50.82089479 322.35821043 -50.05121113 317.99446852 -50 314 C-53.96 313.67 -57.92 313.34 -62 313 C-62 225.88 -62 138.76 -62 49 C-58.04 49 -54.08 49 -50 49 C-50.01740234 46.41865234 -50.01740234 46.41865234 -50.03515625 43.78515625 C-50.04453234 41.54427191 -50.05363273 39.30338641 -50.0625 37.0625 C-50.07087891 35.92619141 -50.07925781 34.78988281 -50.08789062 33.61914062 C-50.09111328 32.53955078 -50.09433594 31.45996094 -50.09765625 30.34765625 C-50.10289307 29.34742432 -50.10812988 28.34719238 -50.11352539 27.31665039 C-50 25 -50 25 -49 24 C-46.27275721 23.89900512 -43.57137477 23.86029471 -40.84375 23.8671875 C-40.02628296 23.86623077 -39.20881592 23.86527405 -38.36657715 23.86428833 C-36.63484622 23.86360655 -34.90311276 23.86546071 -33.17138672 23.86962891 C-30.51133518 23.87497721 -27.8514525 23.86968388 -25.19140625 23.86328125 C-23.51302046 23.86394203 -21.83463477 23.8652232 -20.15625 23.8671875 C-19.35521851 23.86516327 -18.55418701 23.86313904 -17.72888184 23.86105347 C-12.11495079 23.88504921 -12.11495079 23.88504921 -11 25 C-10.82689552 28.1034614 -10.71570798 31.1866321 -10.6484375 34.29296875 C-10.62528473 35.23175369 -10.60213196 36.17053864 -10.57827759 37.13777161 C-10.53054347 39.13093477 -10.48532124 41.1241594 -10.44238281 43.11743164 C-10.37566269 46.15730676 -10.29775778 49.19675057 -10.21875 52.23632812 C-10.173798 54.1718593 -10.12950618 56.10740594 -10.0859375 58.04296875 C-10.06203949 58.94943649 -10.03814148 59.85590424 -10.01351929 60.7898407 C-9.92415366 65.33113504 -10.04961213 69.52858575 -11 74 C-7.37 74 -3.74 74 0 74 C0 49.58 0 25.16 0 0 Z " fill="#C8C1B5" transform="translate(174,100)"/>
<path d="M0 0 C1.79244141 0.01740234 1.79244141 0.01740234 3.62109375 0.03515625 C5.41740234 0.04869141 5.41740234 0.04869141 7.25 0.0625 C8.17683594 0.07410156 9.10367187 0.08570312 10.05859375 0.09765625 C11.32097106 2.62241087 11.15715779 4.40966091 11.12109375 7.22265625 C11.11207031 8.13273437 11.10304688 9.0428125 11.09375 9.98046875 C11.08214844 10.67914063 11.07054687 11.3778125 11.05859375 12.09765625 C11.84105469 12.15824219 12.62351562 12.21882813 13.4296875 12.28125 C14.44160156 12.36503906 15.45351563 12.44882813 16.49609375 12.53515625 C18.01009766 12.65697266 18.01009766 12.65697266 19.5546875 12.78125 C22.05859375 13.09765625 22.05859375 13.09765625 23.05859375 14.09765625 C23.05859375 17.72765625 23.05859375 21.35765625 23.05859375 25.09765625 C34.93859375 25.09765625 46.81859375 25.09765625 59.05859375 25.09765625 C59.05859375 25.42765625 59.05859375 25.75765625 59.05859375 26.09765625 C46.84859375 26.09765625 34.63859375 26.09765625 22.05859375 26.09765625 C22.05859375 42.59765625 22.05859375 59.09765625 22.05859375 76.09765625 C18.09859375 76.09765625 14.13859375 76.09765625 10.05859375 76.09765625 C10.07921875 78.05703125 10.09984375 80.01640625 10.12109375 82.03515625 C10.14236563 84.05598501 10.13103428 86.07801426 10.05859375 88.09765625 C9.05859375 89.09765625 9.05859375 89.09765625 6.3359375 89.1953125 C3.24348958 89.16276042 0.15104167 89.13020833 -2.94140625 89.09765625 C-2.94140625 84.80765625 -2.94140625 80.51765625 -2.94140625 76.09765625 C-7.23140625 76.09765625 -11.52140625 76.09765625 -15.94140625 76.09765625 C-15.94140625 59.59765625 -15.94140625 43.09765625 -15.94140625 26.09765625 C-15.61140625 26.09765625 -15.28140625 26.09765625 -14.94140625 26.09765625 C-14.773518 32.27221311 -14.61298709 38.44690127 -14.45922852 44.62182617 C-14.40590632 46.72181323 -14.35058488 48.82175054 -14.29321289 50.92163086 C-14.21102868 53.94243645 -14.13606953 56.96334884 -14.0625 59.984375 C-14.03546494 60.92101486 -14.00842987 61.85765472 -13.98057556 62.82267761 C-13.96047928 63.70321304 -13.940383 64.58374847 -13.91967773 65.4909668 C-13.88969948 66.64679512 -13.88969948 66.64679512 -13.8591156 67.82597351 C-13.94140625 70.09765625 -13.94140625 70.09765625 -14.94140625 75.09765625 C-11.31140625 75.09765625 -7.68140625 75.09765625 -3.94140625 75.09765625 C-3.94362686 74.17279922 -3.94584747 73.2479422 -3.94813538 72.2950592 C-3.96813538 63.59813038 -3.98337889 54.90120923 -3.99321842 46.20426273 C-3.99844699 41.73260076 -4.00554414 37.26095772 -4.0168457 32.78930664 C-4.02767554 28.47753652 -4.03368329 24.16578466 -4.03628349 19.854002 C-4.03813757 18.20529327 -4.04175785 16.55658559 -4.04713631 14.9078846 C-4.05434803 12.60661753 -4.05539714 10.30542685 -4.05493164 8.00415039 C-4.05715225 6.69176895 -4.05937286 5.37938751 -4.06166077 4.02723694 C-3.90166655 0.1295374 -3.90166655 0.1295374 0 0 Z M-1.94140625 77.09765625 C-1.94140625 80.39765625 -1.94140625 83.69765625 -1.94140625 87.09765625 C1.35859375 87.09765625 4.65859375 87.09765625 8.05859375 87.09765625 C8.05859375 83.79765625 8.05859375 80.49765625 8.05859375 77.09765625 C4.75859375 77.09765625 1.45859375 77.09765625 -1.94140625 77.09765625 Z " fill="#3F5976" transform="translate(302.94140625,98.90234375)"/>
<path d="M0 0 C4.29 0 8.58 0 13 0 C14.32229189 2.64458379 14.09677194 4.67761301 14.0625 7.625 C14.05347656 8.62789062 14.04445312 9.63078125 14.03515625 10.6640625 C14.02355469 11.43492188 14.01195312 12.20578125 14 13 C14.78246094 12.98839844 15.56492188 12.97679688 16.37109375 12.96484375 C17.38300781 12.95582031 18.39492187 12.94679688 19.4375 12.9375 C20.44683594 12.92589844 21.45617187 12.91429688 22.49609375 12.90234375 C25 13 25 13 26 14 C26 17.63 26 21.26 26 25 C54.38 25 82.76 25 112 25 C112 25.33 112 25.66 112 26 C83.29 26 54.58 26 25 26 C25 42.5 25 59 25 76 C21.04 76 17.08 76 13 76 C13.020625 77.959375 13.04125 79.91875 13.0625 81.9375 C13.08377188 83.95832876 13.07244053 85.98035801 13 88 C12.505 88.495 12.505 88.495 12 89 C8.04 89 4.08 89 0 89 C0 59.63 0 30.26 0 0 Z M1 77 C1 80.3 1 83.6 1 87 C6.14317302 88.13779988 6.14317302 88.13779988 11.0625 87.0625 C12.618096 83.6401888 11.65750377 80.64615724 11 77 C7.7 77 4.4 77 1 77 Z " fill="#B0AFA8" transform="translate(175,99)"/>
<path d="M0 0 C10.56 0 21.12 0 32 0 C32 12.54 32 25.08 32 38 C21.44 38 10.88 38 0 38 C0 25.46 0 12.92 0 0 Z " fill="#6F7C86" transform="translate(287,337)"/>
<path d="M0 0 C10.56 0 21.12 0 32 0 C32 12.54 32 25.08 32 38 C21.44 38 10.88 38 0 38 C0 25.46 0 12.92 0 0 Z " fill="#6F7C86" transform="translate(287,287)"/>
<path d="M0 0 C10.56 0 21.12 0 32 0 C32 12.21 32 24.42 32 37 C21.44 37 10.88 37 0 37 C0 24.79 0 12.58 0 0 Z " fill="#6D7B85" transform="translate(287,238)"/>
<path d="M0 0 C10.23 0 20.46 0 31 0 C31 12.54 31 25.08 31 38 C20.77 38 10.54 38 0 38 C0 25.46 0 12.92 0 0 Z " fill="#6E7B85" transform="translate(231,337)"/>
<path d="M0 0 C10.23 0 20.46 0 31 0 C31 12.54 31 25.08 31 38 C20.77 38 10.54 38 0 38 C0 25.46 0 12.92 0 0 Z " fill="#6D7B84" transform="translate(231,287)"/>
<path d="M0 0 C10.23 0 20.46 0 31 0 C31 12.54 31 25.08 31 38 C20.77 38 10.54 38 0 38 C0 25.46 0 12.92 0 0 Z " fill="#6D7A84" transform="translate(175,287)"/>
<path d="M0 0 C0.33 0 0.66 0 1 0 C1 24.75 1 49.5 1 75 C-3.29 75 -7.58 75 -12 75 C-12 58.83 -12 42.66 -12 26 C-29.325 26.495 -29.325 26.495 -47 27 C-47.2890278 33.82084078 -47.2890278 33.82084078 -47.56811523 40.64208984 C-47.60622314 41.48980957 -47.64433105 42.3375293 -47.68359375 43.2109375 C-47.73858032 44.51490479 -47.73858032 44.51490479 -47.79467773 45.84521484 C-48 48 -48 48 -49 50 C-52.96 50 -56.92 50 -61 50 C-61 136.46 -61 222.92 -61 312 C-56.71 312 -52.42 312 -48 312 C-47.67 315.96 -47.34 319.92 -47 324 C-39.41 324.33 -31.82 324.66 -24 325 C-24 328.96 -24 332.92 -24 337 C50.25 337 124.5 337 201 337 C201 333.04 201 329.08 201 325 C209.25 325 217.5 325 226 325 C226 325.33 226 325.66 226 326 C222.04 326 218.08 326 214 326 C214 329.96 214 333.92 214 338 C131.17 338 48.34 338 -37 338 C-37.93391785 333.33041073 -37.80917656 330.58533383 -37 326 C-40.96 326 -44.92 326 -49 326 C-50.82089479 322.35821043 -50.05121113 317.99446852 -50 314 C-53.96 313.67 -57.92 313.34 -62 313 C-62 225.88 -62 138.76 -62 49 C-58.04 49 -54.08 49 -50 49 C-50.01740234 46.41865234 -50.01740234 46.41865234 -50.03515625 43.78515625 C-50.04453234 41.54427191 -50.05363273 39.30338641 -50.0625 37.0625 C-50.07087891 35.92619141 -50.07925781 34.78988281 -50.08789062 33.61914062 C-50.09111328 32.53955078 -50.09433594 31.45996094 -50.09765625 30.34765625 C-50.10289307 29.34742432 -50.10812988 28.34719238 -50.11352539 27.31665039 C-50 25 -50 25 -49 24 C-46.27275721 23.89900512 -43.57137477 23.86029471 -40.84375 23.8671875 C-40.02628296 23.86623077 -39.20881592 23.86527405 -38.36657715 23.86428833 C-36.63484622 23.86360655 -34.90311276 23.86546071 -33.17138672 23.86962891 C-30.51133518 23.87497721 -27.8514525 23.86968388 -25.19140625 23.86328125 C-23.51302046 23.86394203 -21.83463477 23.8652232 -20.15625 23.8671875 C-19.35521851 23.86516327 -18.55418701 23.86313904 -17.72888184 23.86105347 C-12.11495079 23.88504921 -12.11495079 23.88504921 -11 25 C-10.82689552 28.1034614 -10.71570798 31.1866321 -10.6484375 34.29296875 C-10.62528473 35.23175369 -10.60213196 36.17053864 -10.57827759 37.13777161 C-10.53054347 39.13093477 -10.48532124 41.1241594 -10.44238281 43.11743164 C-10.37566269 46.15730676 -10.29775778 49.19675057 -10.21875 52.23632812 C-10.173798 54.1718593 -10.12950618 56.10740594 -10.0859375 58.04296875 C-10.06203949 58.94943649 -10.03814148 59.85590424 -10.01351929 60.7898407 C-9.92415366 65.33113504 -10.04961213 69.52858575 -11 74 C-7.37 74 -3.74 74 0 74 C0 49.58 0 25.16 0 0 Z " fill="#D2D5D3" transform="translate(174,100)"/>
<path d="M0 0 C10.23 0 20.46 0 31 0 C31 12.21 31 24.42 31 37 C20.77 37 10.54 37 0 37 C0 24.79 0 12.58 0 0 Z " fill="#6C7982" transform="translate(175,338)"/>
<path d="M0 0 C10.23 0 20.46 0 31 0 C31 12.21 31 24.42 31 37 C20.77 37 10.54 37 0 37 C0 24.79 0 12.58 0 0 Z " fill="#6C7984" transform="translate(231,238)"/>
<path d="M0 0 C10.23 0 20.46 0 31 0 C31 12.21 31 24.42 31 37 C20.77 37 10.54 37 0 37 C0 24.79 0 12.58 0 0 Z " fill="#6B7983" transform="translate(175,238)"/>
<path d="M0 0 C4.29 0 8.58 0 13 0 C14.26237731 2.52475462 14.09856404 4.31200466 14.0625 7.125 C14.05347656 8.03507812 14.04445313 8.94515625 14.03515625 9.8828125 C14.02355469 10.58148438 14.01195312 11.28015625 14 12 C14.78246094 12.06058594 15.56492187 12.12117188 16.37109375 12.18359375 C17.38300781 12.26738281 18.39492188 12.35117188 19.4375 12.4375 C20.95150391 12.55931641 20.95150391 12.55931641 22.49609375 12.68359375 C25 13 25 13 26 14 C26 17.63 26 21.26 26 25 C37.88 25 49.76 25 62 25 C62 25.33 62 25.66 62 26 C49.79 26 37.58 26 25 26 C25 42.5 25 59 25 76 C21.04 76 17.08 76 13 76 C13.020625 77.959375 13.04125 79.91875 13.0625 81.9375 C13.08377188 83.95832876 13.07244053 85.98035801 13 88 C12 89 12 89 9.27734375 89.09765625 C6.18489583 89.06510417 3.09244792 89.03255208 0 89 C0 84.71 0 80.42 0 76 C3.96 76 7.92 76 12 76 C12 51.25 12 26.5 12 1 C8.04 1 4.08 1 0 1 C0 0.67 0 0.34 0 0 Z M1 77 C1 80.3 1 83.6 1 87 C4.3 87 7.6 87 11 87 C11 83.7 11 80.4 11 77 C7.7 77 4.4 77 1 77 Z " fill="#B0ADA5" transform="translate(300,99)"/>
<path d="M0 0 C3.96 0 7.92 0 12 0 C12 24.75 12 49.5 12 75 C8.04 75 4.08 75 0 75 C0 50.25 0 25.5 0 0 Z " fill="#234061" transform="translate(175,100)"/>
<path d="M0 0 C70.29 0 140.58 0 213 0 C212.67 0.99 212.34 1.98 212 3 C107.06 2.505 107.06 2.505 0 2 C0 1.34 0 0.68 0 0 Z " fill="#949AA0" transform="translate(150,425)"/>
<path d="M0 0 C3.96 0 7.92 0 12 0 C12 86.46 12 172.92 12 262 C8.7 262 5.4 262 2 262 C6 260 6 260 10 260 C10.33 175.19 10.66 90.38 11 3 C8.69 3 6.38 3 4 3 C2.68 2.01 1.36 1.02 0 0 Z " fill="#2D3E4E" transform="translate(363,150)"/>
<path d="M0 0 C0.33 0 0.66 0 1 0 C1.01030746 0.59166962 1.02061493 1.18333923 1.03123474 1.79293823 C1.14001254 7.99063595 1.25454556 14.18820894 1.37231445 20.38574219 C1.41543651 22.69398369 1.45712598 25.00225244 1.49731445 27.31054688 C1.55557191 30.64201037 1.61910203 33.97333954 1.68359375 37.3046875 C1.70030624 38.32488983 1.71701874 39.34509216 1.73423767 40.39620972 C1.86132699 46.64235609 2.27467259 52.79449801 3 59 C4.32 59 5.64 59 7 59 C7 59.66 7 60.32 7 61 C7.99 61 8.98 61 10 61 C10.02505615 59.87094238 10.0501123 58.74188477 10.07592773 57.57861328 C10.17084259 53.34788681 10.27085008 49.11729279 10.37231445 44.88671875 C10.41534815 43.06350832 10.457042 41.2402657 10.49731445 39.41699219 C10.55579085 36.78050072 10.6192525 34.14416662 10.68359375 31.5078125 C10.70030624 30.70634796 10.71701874 29.90488342 10.73423767 29.07913208 C10.88071758 23.35032927 11.36204042 17.69432963 12 12 C12.33 12 12.66 12 13 12 C13 28.5 13 45 13 62 C9.04 62 5.08 62 1 62 C1.020625 63.959375 1.04125 65.91875 1.0625 67.9375 C1.08377188 69.95832876 1.07244053 71.98035801 1 74 C0 75 0 75 -2.72265625 75.09765625 C-5.81510417 75.06510417 -8.90755208 75.03255208 -12 75 C-12 70.71 -12 66.42 -12 62 C-8.04 62 -4.08 62 0 62 C0 41.54 0 21.08 0 0 Z M-11 63 C-11 66.3 -11 69.6 -11 73 C-7.7 73 -4.4 73 -1 73 C-1 69.7 -1 66.4 -1 63 C-4.3 63 -7.6 63 -11 63 Z " fill="#97A2A7" transform="translate(312,113)"/>
<path d="M0 0 C0.66 0 1.32 0 2 0 C2 4.62 2 9.24 2 14 C-68.29 14 -138.58 14 -211 14 C-211 13.67 -211 13.34 -211 13 C-209.93594279 12.99853344 -208.87188559 12.99706688 -207.77558422 12.99555588 C-181.91267388 12.95899891 -156.04989343 12.89959946 -130.18709087 12.81609726 C-117.68014491 12.7762482 -105.17326241 12.74388556 -92.66625977 12.72900391 C-81.76812968 12.71601776 -70.87013887 12.68913106 -59.9720872 12.64538693 C-54.1989323 12.62270367 -48.42594962 12.60709342 -42.6527462 12.60811615 C-37.22314461 12.60885872 -31.79392473 12.591071 -26.36442184 12.55883217 C-24.36774116 12.55028635 -22.37101788 12.54861471 -20.37432671 12.55419731 C-17.65552711 12.56078856 -14.93795948 12.54303485 -12.21928406 12.51898193 C-11.0242524 12.53062256 -11.0242524 12.53062256 -9.80507869 12.54249835 C-5.50110695 12.48102137 -5.50110695 12.48102137 -1.99410725 10.19803238 C-0.59467554 7.10380264 -0.87348349 4.35268763 -1 1 C-0.67 0.67 -0.34 0.34 0 0 Z " fill="#253950" transform="translate(361,411)"/>
<path d="M0 0 C4.29 0 8.58 0 13 0 C14.92572521 3.85145043 14.04883218 8.80043252 14 13 C17.63 13 21.26 13 25 13 C25 13.33 25 13.66 25 14 C21.37 14 17.74 14 14 14 C14.33 33.14 14.66 52.28 15 72 C16.98 72.66 18.96 73.32 21 74 C21 74.66 21 75.32 21 76 C18.36 76 15.72 76 13 76 C13.01160156 76.85464844 13.02320313 77.70929688 13.03515625 78.58984375 C13.04417969 79.69457031 13.05320313 80.79929687 13.0625 81.9375 C13.07410156 83.03964844 13.08570313 84.14179688 13.09765625 85.27734375 C13 88 13 88 12 89 C7.99779347 89.14355117 4.00558317 89.04216403 0 89 C0 84.71 0 80.42 0 76 C3.96 76 7.92 76 12 76 C12 51.25 12 26.5 12 1 C8.04 1 4.08 1 0 1 C0 0.67 0 0.34 0 0 Z M1 77 C1 80.3 1 83.6 1 87 C6.14317302 88.13779988 6.14317302 88.13779988 11.0625 87.0625 C12.618096 83.6401888 11.65750377 80.64615724 11 77 C7.7 77 4.4 77 1 77 Z " fill="#B3BABB" transform="translate(175,99)"/>
<path d="M0 0 C0.33 0 0.66 0 1 0 C1.00423194 1.14006437 1.00846388 2.28012875 1.01282406 3.45474052 C1.11605727 31.20606596 1.22481082 58.95736559 1.33933926 86.70864677 C1.35035008 89.38128527 1.36134039 92.05392385 1.37231445 94.7265625 C1.37504276 95.39084649 1.37777106 96.05513048 1.38058204 96.73954429 C1.42187526 106.81626336 1.46035846 116.89299072 1.49731445 126.96972656 C1.54024769 138.66808919 1.58654853 150.36643283 1.63687855 162.06476605 C1.66340595 168.25784076 1.68825696 174.45091188 1.70907402 180.64400864 C1.72873219 186.47649558 1.7529028 192.30894664 1.78049088 198.14140129 C1.78981288 200.27867032 1.79750532 202.4159472 1.80341911 204.55322838 C1.81176332 207.479362 1.82606208 210.40541044 1.84178162 213.33151245 C1.84275972 214.17006551 1.84373783 215.00861856 1.84474558 215.87258232 C1.87968654 220.9576166 2.24884019 225.91040952 2.88446862 230.95709527 C3 233 3 233 2 235 C1.34 235 0.68 235 0 235 C0 157.45 0 79.9 0 0 Z " fill="#9BA3A8" transform="translate(375,176)"/>
<path d="M0 0 C0.33 0 0.66 0 1 0 C1 24.75 1 49.5 1 75 C-3.29 75 -7.58 75 -12 75 C-12 58.83 -12 42.66 -12 26 C-29.325 26.495 -29.325 26.495 -47 27 C-47.33 33.93 -47.66 40.86 -48 48 C-48.33 48 -48.66 48 -49 48 C-49 40.08 -49 32.16 -49 24 C-43.74888804 23.97709161 -38.49794822 23.95716437 -33.24682617 23.94506836 C-31.45905979 23.94002782 -29.67129755 23.93319546 -27.88354492 23.92456055 C-25.31948832 23.9124827 -22.75548603 23.90676906 -20.19140625 23.90234375 C-19.3872377 23.89718246 -18.58306915 23.89202118 -17.75453186 23.88670349 C-15.83598285 23.88650785 -13.91754632 23.93798017 -12 24 C-9.8192736 26.1807264 -10.71422565 31.25508157 -10.6484375 34.29296875 C-10.62528473 35.23175369 -10.60213196 36.17053864 -10.57827759 37.13777161 C-10.53054347 39.13093477 -10.48532124 41.1241594 -10.44238281 43.11743164 C-10.37566269 46.15730676 -10.29775778 49.19675057 -10.21875 52.23632812 C-10.173798 54.1718593 -10.12950618 56.10740594 -10.0859375 58.04296875 C-10.06203949 58.94943649 -10.03814148 59.85590424 -10.01351929 60.7898407 C-9.92415366 65.33113504 -10.04961213 69.52858575 -11 74 C-7.37 74 -3.74 74 0 74 C0 49.58 0 25.16 0 0 Z " fill="#B2BEC5" transform="translate(174,100)"/>
<path d="M0 0 C3.63 0 7.26 0 11 0 C11 24.75 11 49.5 11 75 C7.37 75 3.74 75 0 75 C0 72.36 0 69.72 0 67 C0.33 67 0.66 67 1 67 C1 68.98 1 70.96 1 73 C2.134375 72.835 3.26875 72.67 4.4375 72.5 C8 72 8 72 9 72 C9 48.57 9 25.14 9 1 C6.69 1.33 4.38 1.66 2 2 C1.67 23.12 1.34 44.24 1 66 C0.67 66 0.34 66 0 66 C0 44.22 0 22.44 0 0 Z " fill="#243B53" transform="translate(176,100)"/>
<path d="M0 0 C0.33 0 0.66 0 1 0 C1 38.28 1 76.56 1 116 C5.29 116 9.58 116 14 116 C14.33 119.96 14.66 123.92 15 128 C14.01 128 13.02 128 12 128 C12 124.7 12 121.4 12 118 C8.04 117.67 4.08 117.34 0 117 C0 78.39 0 39.78 0 0 Z " fill="#BECCD9" transform="translate(112,296)"/>
<path d="M0 0 C3.63 0 7.26 0 11 0 C11 24.75 11 49.5 11 75 C7.37 75 3.74 75 0 75 C0 70.38 0 65.76 0 61 C0.33 61 0.66 61 1 61 C1.33 64.96 1.66 68.92 2 73 C4.31 73 6.62 73 9 73 C9 49.57 9 26.14 9 2 C7.02 2 5.04 2 3 2 C1.71394339 4.57211322 1.78956059 6.56906966 1.68359375 9.4453125 C1.64169922 10.52167969 1.59980469 11.59804687 1.55664062 12.70703125 C1.51732422 13.83496094 1.47800781 14.96289062 1.4375 16.125 C1.39431641 17.26066406 1.35113281 18.39632812 1.30664062 19.56640625 C1.2003396 22.37747768 1.09830595 25.18863945 1 28 C0.67 28 0.34 28 0 28 C0 18.76 0 9.52 0 0 Z " fill="#253A52" transform="translate(301,100)"/>
<path d="M0 0 C3.96 0 7.92 0 12 0 C12 3.96 12 7.92 12 12 C8.04 12 4.08 12 0 12 C0 8.04 0 4.08 0 0 Z " fill="#C3BEAF" transform="translate(375,425)"/>
<path d="M0 0 C0.33 0 0.66 0 1 0 C1.02312465 9.63112712 1.04091571 19.26224474 1.05181217 28.89339352 C1.05704074 33.36505549 1.06413789 37.83669853 1.07543945 42.30834961 C1.08626929 46.62011973 1.09227704 50.93187159 1.09487724 55.24365425 C1.09673132 56.89236298 1.1003516 58.54107066 1.10573006 60.18977165 C1.11294178 62.49103872 1.11399089 64.7922294 1.11352539 67.09350586 C1.115746 68.4058873 1.11796661 69.71826874 1.12025452 71.07041931 C1 74 1 74 0 75 C-4.00220653 75.14355117 -7.99441683 75.04216403 -12 75 C-12 70.71 -12 66.42 -12 62 C-8.04 62 -4.08 62 0 62 C0 41.54 0 21.08 0 0 Z M-11 63 C-11 66.3 -11 69.6 -11 73 C-5.85682698 74.13779988 -5.85682698 74.13779988 -0.9375 73.0625 C0.618096 69.6401888 -0.34249623 66.64615724 -1 63 C-4.3 63 -7.6 63 -11 63 Z " fill="#8898A3" transform="translate(187,113)"/>
<path d="M0 0 C3.96 0 7.92 0 12 0 C12 3.3 12 6.6 12 10 C8.04 10 4.08 10 0 10 C0 6.7 0 3.4 0 0 Z " fill="#C5C0B0" transform="translate(138,427)"/>
<path d="M0 0 C12.54 0 25.08 0 38 0 C38 8.25 38 16.5 38 25 C37.34 25 36.68 25 36 25 C35.67 17.74 35.34 10.48 35 3 C32.04189524 1.52094762 29.0452845 1.87809097 25.8046875 1.90234375 C25.09724396 1.9037587 24.38980042 1.90517365 23.66091919 1.90663147 C21.39890331 1.912234 19.13698602 1.92478682 16.875 1.9375 C15.34244935 1.94251468 13.80989714 1.94707764 12.27734375 1.95117188 C8.51819112 1.96220423 4.75911228 1.97947048 1 2 C0.67 1.34 0.34 0.68 0 0 Z " fill="#394B5E" transform="translate(325,125)"/>
<path d="M0 0 C2.20808081 5.19548425 1.93402724 8.58264203 1 14 C0.67 14 0.34 14 0 14 C-0.495 8.06 -0.495 8.06 -1 2 C-14.86 2 -28.72 2 -43 2 C-43 1.67 -43 1.34 -43 1 C-38.64419676 0.85528126 -34.28832281 0.71297609 -29.93237305 0.57275391 C-28.45546422 0.52488889 -26.97857536 0.47640349 -25.50170898 0.42724609 C-16.9996846 0.14471019 -8.50811051 -0.08219294 0 0 Z " fill="#233A56" transform="translate(364,210)"/>
<path d="M0 0 C0.33 0 0.66 0 1 0 C1 4.95 1 9.9 1 15 C5.29 15 9.58 15 14 15 C14.33 18.96 14.66 22.92 15 27 C14.01 27 13.02 27 12 27 C12 23.7 12 20.4 12 17 C8.04 16.67 4.08 16.34 0 16 C0 10.72 0 5.44 0 0 Z " fill="#B7C5D1" transform="translate(112,397)"/>
<path d="M0 0 C3.96 0 7.92 0 12 0 C12 0.66 12 1.32 12 2 C8.7 2 5.4 2 2 2 C1.67 4.97 1.34 7.94 1 11 C0.67 11 0.34 11 0 11 C0 7.37 0 3.74 0 0 Z " fill="#2B4056" transform="translate(188,175)"/>
<path d="M0 0 C2.31 0 4.62 0 7 0 C7 0.33 7 0.66 7 1 C5.02 1 3.04 1 1 1 C1.66 4.3 2.32 7.6 3 11 C5.64 11.33 8.28 11.66 11 12 C11 12.33 11 12.66 11 13 C7.37 13 3.74 13 0 13 C0 8.71 0 4.42 0 0 Z " fill="#BFC4C5" transform="translate(363,137)"/>
<path d="M0 0 C0.66 0 1.32 0 2 0 C2 4.62 2 9.24 2 14 C1.34 13.01 0.68 12.02 0 11 C-1.98 11.99 -1.98 11.99 -4 13 C-3.2575 11.9790625 -3.2575 11.9790625 -2.5 10.9375 C-0.69569408 7.40406757 -0.84942966 4.91482882 -1 1 C-0.67 0.67 -0.34 0.34 0 0 Z " fill="#30435B" transform="translate(361,411)"/>
<path d="M0 0 C0.33 0 0.66 0 1 0 C1.02686553 1.97909398 1.04633375 3.95828971 1.0625 5.9375 C1.07410156 7.03964844 1.08570313 8.14179688 1.09765625 9.27734375 C1 12 1 12 0 13 C-2.01964199 13.07244053 -4.04167124 13.08377188 -6.0625 13.0625 C-7.16722656 13.05347656 -8.27195313 13.04445312 -9.41015625 13.03515625 C-10.69212891 13.01775391 -10.69212891 13.01775391 -12 13 C-12 12.67 -12 12.34 -12 12 C-6.555 11.505 -6.555 11.505 -1 11 C-0.67 7.37 -0.34 3.74 0 0 Z " fill="#9DAAB6" transform="translate(187,175)"/>
<path d="M0 0 C0.33 0 0.66 0 1 0 C1.33 3.96 1.66 7.92 2 12 C1.01 12 0.02 12 -1 12 C-1.02698189 10.37509046 -1.04638757 8.75005367 -1.0625 7.125 C-1.07410156 6.22007812 -1.08570312 5.31515625 -1.09765625 4.3828125 C-1 2 -1 2 0 0 Z " fill="#7B8893" transform="translate(125,412)"/>
</svg>
