<svg width="32" height="32" viewBox="0 0 32 32" fill="none" xmlns="http://www.w3.org/2000/svg">
<g clip-path="url(#clip0_1178_18722)">
<path d="M30.47 6.10003H27.43V7.62003H25.9V6.10003H24.38V9.15003H18.28V7.62003H22.85V6.10003H19.81V4.57003H24.38V3.05003H21.33V1.53003H19.81V3.05003H18.28V4.57003H16.76V9.15003H15.24V6.10003H13.71V9.15003H10.66V7.62003H9.14V9.15003H6.09V7.62003H4.57V9.15003H3.04V3.05003H1.52V9.15003H0V22.86H1.52V10.67H22.85V21.34H24.38V30.48H3.04V32H25.9V30.48H27.43V28.96H28.95V27.43H30.47V25.91H32V18.29H30.47V6.10003Z" fill="#BFFB4F"/>
<path d="M27.43 3.05005H25.9V6.10005H27.43V3.05005Z" fill="#BFFB4F"/>
<path d="M25.9 1.53003H24.38V3.05003H25.9V1.53003Z" fill="#BFFB4F"/>
<path d="M24.38 0H21.33V1.53H24.38V0Z" fill="#BFFB4F"/>
<path d="M16.76 13.72H15.24V16.76H16.76V13.72Z" fill="#BFFB4F"/>
<path d="M16.76 3.05005H15.24V4.57005H16.76V3.05005Z" fill="#BFFB4F"/>
<path d="M13.71 4.57007H12.19V6.10007H13.71V4.57007Z" fill="#BFFB4F"/>
<path d="M12.19 6.1001H10.66V7.6201H12.19V6.1001Z" fill="#BFFB4F"/>
<path d="M15.24 16.76H9.14001V18.29H15.24V16.76Z" fill="#BFFB4F"/>
<path d="M12.19 4.57003V3.05003H15.24V1.53003H10.66V3.05003H9.14001V4.57003H12.19Z" fill="#BFFB4F"/>
<path d="M9.14 13.72H7.62V16.76H9.14V13.72Z" fill="#BFFB4F"/>
<path d="M9.14 4.57007H7.62V6.10007H9.14V4.57007Z" fill="#BFFB4F"/>
<path d="M7.62003 6.1001H6.09003V7.6201H7.62003V6.1001Z" fill="#BFFB4F"/>
<path d="M6.09001 4.57007H4.57001V6.10007H6.09001V4.57007Z" fill="#BFFB4F"/>
<path d="M9.13998 1.53003H3.03998V3.05003H9.13998V1.53003Z" fill="#BFFB4F"/>
<path d="M3.04002 22.8601H1.52002V30.4801H3.04002V22.8601Z" fill="#BFFB4F"/>
</g>
<defs>
<clipPath id="clip0_1178_18722">
<rect width="32" height="32" fill="white"/>
</clipPath>
</defs>
</svg>
